# xmcd
#
# Track frame offsets: 
#        150
#        16755
#        32888
#        48778
#        63431
#        78451
#        94102
#        108889
#        123618
#        138700
#        153360
#        168307
#        182536
#        196652
#        212218
#        227105
#        242156
#        257243
#        273440
#        276305
#        282822
#        288869
#        290703
#        304433
#        308089
#        322320
#
# Disc length: 4486 seconds
#
# Revision: 0
# Processed by: cddbd v1.5.2PL0 Copyright (c) Steve Scherf et al.
# Submitted via: ExactAudioCopy v0.95b3
#
DISCID=8611841a
DTITLE=Billie Holiday  - Volume 13 1944 Complete Edition
DYEAR=1900
DGENRE=
TTITLE0=I'll Be Seeing You
TTITLE1=I'll Be Seeing You
TTITLE2=I'll Be Seeing You
TTITLE3=I'm Yours
TTITLE4=I'm Yours
TTITLE5=I'm Yours
TTITLE6=Embraceable You
TTITLE7=Embraceable You
TTITLE8=Embraceable You
TTITLE9=As Time Goes By
TTITLE10=As Time Goes By
TTITLE11=He's Funny That Way
TTITLE12=He's Funny That Way
TTITLE13=Lover. Come Back To Me
TTITLE14=Lover. Come Back To Me
TTITLE15=He's Funny That Way
TTITLE16=He's Funny That Way
TTITLE17=He's Funny That Way
TTITLE18=Love Me Or Leave Me
TTITLE19=Love Me Or Leave Me
TTITLE20=Gloomy Sunday
TTITLE21=Mandy Is Two
TTITLE22=Mandy Is Two
TTITLE23=It's a Sin To Tell a Lie
TTITLE24=It's a Sin To Tell a Lie
TTITLE25=It's a Sin To Tell a Lie
EXTD=
EXTT0=
EXTT1=
EXTT2=
EXTT3=
EXTT4=
EXTT5=
EXTT6=
EXTT7=
EXTT8=
EXTT9=
EXTT10=
EXTT11=
EXTT12=
EXTT13=
EXTT14=
EXTT15=
EXTT16=
EXTT17=
EXTT18=
EXTT19=
EXTT20=
EXTT21=
EXTT22=
EXTT23=
EXTT24=
EXTT25=
PLAYORDER=
